<?xml version="1.0" encoding="UTF-8"?>
<svg id="Layer_1" xmlns="http://www.w3.org/2000/svg" version="1.1" viewBox="0 0 64 64">
  <!-- Generator: Adobe Illustrator 29.8.5, SVG Export Plug-In . SVG Version: 2.1.1 Build 2)  -->
  <defs>
    <style>
      .st0 {
        fill: #e8a020;
      }

      .st1 {
        fill: #0e0f0f;
      }
    </style>
  </defs>
  <rect class="st1" y="0" width="64" height="64" rx="7" ry="7"/>
  <path class="st0" d="M39.98,19.93c.82.57,2.27,1.73,3.06,2.14.51.26,1.26.39,1.86.68,1.44.69,3.35,2.21,4.24,3.53.59.88.74,1.79,1.53,2.59.29.3,1.44,1.22,1.79,1.4.72.38,1.39.18,1.92-.36.84-.85,3.19-3.88,3.77-4.9.28-.49.34-.96.11-1.51-.14-.32-1.76-1.57-2.14-1.79-.91-.53-1.88-.45-2.84-.79-2.46-.86-4.92-3.23-6.05-5.55-2.49-1.81-5.22-4.57-7.81-6.14-4.33-2.62-12.18-1.33-16.45.62-.73.33-4.92,2.66-5.06,3.2-.06.22.09.48.33.49.3,0,1.34-.4,1.76-.48,2.88-.57,6.13-.56,9.01.22,4.03,1.1,7.59,4.29,10.99,6.64Z"/>
  <path class="st0" d="M41.34,23.58l-7.89-5.46c-.16-.01-1.43,1.8-1.65,2.06l7.58,5.89,1.96-2.49Z"/>
  <path class="st0" d="M32.23,23.2c-.24-.18-.47-.49-.8-.59l-23.39,26.67c-.19.53-.03,1.27.59,1.85l6.2,4.72c1.47.81,1.92.2,2.48-.52,2.2-2.85,4.16-6.03,6.23-8.99,2.05-2.92,4.16-5.85,6.21-8.78l7.39-10.57-.1-.19c-1.6-1.21-3.19-2.42-4.8-3.61Z"/>
</svg>